# xmcd
#
# Track frame offsets: 
#        150
#        5059
#        30312
#        43613
#        65897
#        66869
#        89659
#        114576
#        128364
#        130189
#        144520
#
# Disc length: 2478 seconds
#
# Revision: 0
# Processed by: cddbd v1.5.2PL0 Copyright (c) Steve Scherf et al.
# Submitted via: ExactAudioCopy v0.99pb5
#
DISCID=9909ac0b
DTITLE=Delta Blues Band - Delta Blues Band
DYEAR=1969
DGENRE=Blues
TTITLE0=The Return Of The Pink D.F.
TTITLE1=Clouds Covering The Sun
TTITLE2=We've Got Hard Times
TTITLE3=Shit On My Shoes
TTITLE4=simple Sound
TTITLE5=You don't Know My Mind
TTITLE6=Highway 51
TTITLE7=Lock Me Up In Jail
TTITLE8=The King Of Denmark
TTITLE9=Where The Water Tastes Like Wine
TTITLE10=Opus 1
EXTD=
EXTT0=
EXTT1=
EXTT2=
EXTT3=
EXTT4=
EXTT5=
EXTT6=
EXTT7=
EXTT8=
EXTT9=
EXTT10=
PLAYORDER=
